<svg xmlns="http://www.w3.org/2000/svg" width="9" height="5" viewBox="0 0 9 5" fill="none">
  <path d="M8.04168 0.495407C7.90897 0.363479 7.72944 0.289429 7.54231 0.289429C7.35517 0.289429 7.17565 0.363479 7.04293 0.495407L4.50001 3.00291L1.99251 0.495407C1.8598 0.363479 1.68027 0.289429 1.49314 0.289429C1.30601 0.289429 1.12648 0.363479 0.993765 0.495407C0.927374 0.561255 0.874677 0.639598 0.838716 0.725915C0.802755 0.812232 0.784241 0.904815 0.784241 0.998323C0.784241 1.09183 0.802755 1.18441 0.838716 1.27073C0.874677 1.35705 0.927374 1.43539 0.993765 1.50124L3.9971 4.50457C4.06295 4.57096 4.14129 4.62366 4.22761 4.65962C4.31392 4.69558 4.40651 4.7141 4.50001 4.7141C4.59352 4.7141 4.68611 4.69558 4.77242 4.65962C4.85874 4.62366 4.93708 4.57096 5.00293 4.50457L8.04168 1.50124C8.10807 1.43539 8.16077 1.35705 8.19673 1.27073C8.23269 1.18441 8.25121 1.09183 8.25121 0.998323C8.25121 0.904815 8.23269 0.812232 8.19673 0.725915C8.16077 0.639598 8.10807 0.561255 8.04168 0.495407Z" fill="#409A75"/>
</svg>